<svg xmlns="http://www.w3.org/2000/svg" width="314.442" height="38.04" viewBox="0 0 314.442 38.04">
  <g id="Grupo_734" data-name="Grupo 734" transform="translate(23766 22133)">
    <path id="Unión_2" data-name="Unión 2" d="M60.553,14.6c0-4.993,3.3-8.322,8.256-8.322s8.255,3.329,8.255,8.322-3.3,8.322-8.255,8.322S60.553,19.6,60.553,14.6Zm4.427,0c0,2.795,1.537,4.648,3.829,4.648s3.83-1.853,3.83-4.648c0-2.827-1.538-4.649-3.83-4.649S64.979,11.778,64.979,14.6Zm-51.5,0c0-4.993,3.3-8.322,8.255-8.322s8.255,3.329,8.255,8.322-3.3,8.322-8.255,8.322S13.476,19.6,13.476,14.6Zm4.426,0c0,2.795,1.538,4.648,3.83,4.648S25.56,17.4,25.56,14.6c0-2.827-1.538-4.649-3.829-4.649S17.9,11.778,17.9,14.6ZM3.139,22.456V10.4H0V6.753H3.139V5.246C3.139,1.948,5.116,0,8.569,0,12.21,0,13.624,2.136,12.9,5.246H9.2c.345-1.132.062-1.79-.692-1.79s-1.1.658-1.1,1.79V6.753H12.87V10.4H7.407V22.456Zm46.934,0-5.462-15.7H49.13l3.548,11.808L56.287,6.753h4.489l-5.493,15.7Zm-18.843,0V6.753h4.238v2.67a4.624,4.624,0,0,1,4.4-3.141c2.636,0,4.331,1.946,4.331,4.868a8.274,8.274,0,0,1-.847,3.612H38.92A5.513,5.513,0,0,0,39.831,12c0-1.226-.66-2.01-1.7-2.01-1.537,0-2.668,1.853-2.668,4.742v7.725Z" transform="translate(-23726.256 -22123.975)" fill="#1f1f1f"/>
    <path id="Trazado_16" data-name="Trazado 16" d="M31.439,3.943V.55a.55.55,0,0,0-.55-.55H.55A.55.55,0,0,0,0,.55V30.9a.55.55,0,0,0,.55.55h3.4a.55.55,0,0,0,.55-.55v-.576C4.5,26,7.125,21.872,11.884,18.7c5.038-3.363,11.779-5.215,18.981-5.215h.025a.55.55,0,0,0,.55-.55V9.537a.55.55,0,0,0-.55-.55h-.025c-8.079,0-15.706,2.121-21.474,5.97a25.668,25.668,0,0,0-3.964,3.234.549.549,0,0,1-.936-.391V5.044a.55.55,0,0,1,.55-.55H30.889a.55.55,0,0,0,.55-.55" transform="translate(-23766 -22133)" fill="blue"/>
    <path id="Trazado_202" data-name="Trazado 202" d="M10.2-16.34a6.351,6.351,0,0,0-5.641,3.127v-2.74H2.112V6.61h2.45V-2.576A6.351,6.351,0,0,0,10.2.55c4.255,0,7.285-3.352,7.285-8.445C17.487-12.956,14.49-16.34,10.2-16.34ZM9.655-1.706c-3.127,0-5.19-2.482-5.19-6.189s2.063-6.189,5.19-6.189,5.222,2.482,5.222,6.189S12.781-1.706,9.655-1.706ZM27.705-16.34c-1.9,0-3.385,1.16-4.319,3.191v-2.8h-2.45V.163h2.45V-7.669c0-3.8,1.386-6.318,3.449-6.318a2.013,2.013,0,0,1,2.031,2.256A3.616,3.616,0,0,1,28.253-9.7h2.611a5.962,5.962,0,0,0,.612-2.579A3.771,3.771,0,0,0,27.705-16.34ZM41.05.55c4.674,0,7.8-3.385,7.8-8.445s-3.127-8.445-7.8-8.445c-4.706,0-7.833,3.385-7.833,8.445S36.344.55,41.05.55Zm0-2.256c-3.127,0-5.222-2.482-5.222-6.189s2.1-6.189,5.222-6.189c3.094,0,5.19,2.482,5.19,6.189S44.144-1.706,41.05-1.706Zm19.5-14.634a6.455,6.455,0,0,0-5.834,3.546v-3.159h-2.45V.163h2.45V-7.6c0-3.836,2.063-6.382,5.093-6.382,3.417,0,3.417,3.223,3.417,5.48V.163h2.45v-8.8C65.676-11.312,65.676-16.34,60.551-16.34Zm19.4.387V-7.6c0,3.417-2,5.8-4.8,5.8-2.869,0-3.417-2.514-3.417-4.771v-9.38h-2.45v9.412c0,2.9.806,7.091,5.19,7.091a5.84,5.84,0,0,0,5.48-3.707V.163h2.45V-15.953Zm14.956-.387a6.455,6.455,0,0,0-5.834,3.546v-3.159h-2.45V.163h2.45V-7.6c0-3.836,2.063-6.382,5.093-6.382,3.417,0,3.417,3.223,3.417,5.48V.163h2.45v-8.8C100.037-11.312,100.037-16.34,94.912-16.34ZM110.964.55a7.459,7.459,0,0,0,7.575-6.189h-2.675a4.986,4.986,0,0,1-4.9,3.932c-3.127,0-5.222-2.482-5.222-6.189s2.063-6.189,5.319-6.189c3.062,0,4.642,2.16,4.061,5.673h2.611c.806-4.513-1.741-7.929-6.608-7.929-4.9,0-7.994,3.385-7.994,8.445S106.258.55,110.964.55Zm12.088-19.243a1.824,1.824,0,0,0,1.837-1.87,1.816,1.816,0,0,0-1.837-1.837,1.824,1.824,0,0,0-1.87,1.837A1.831,1.831,0,0,0,123.051-18.693ZM121.827.163h2.45V-15.953h-2.45Zm13.151-16.5c-4.061,0-6.93,2.546-6.06,5.963h2.611c-.58-2.418,1-3.707,3.417-3.707,3.127,0,4.126,2.192,4.126,5.061v.129a15.494,15.494,0,0,0-4.094-.548c-4.416,0-7.253,2-7.253,5.222,0,2.869,2.289,4.771,5.544,4.771A6.415,6.415,0,0,0,139.1-2.77V.163h2.417V-8.991C141.521-13.342,139.426-16.34,134.978-16.34Zm-1.451,14.7c-2,0-3.191-.9-3.191-2.482,0-1.934,1.741-3.191,4.835-3.191a13.907,13.907,0,0,1,3.9.58A5.407,5.407,0,0,1,133.527-1.642Zm20.081-12.087v-2.224h-4.545v-4.158h-2.45v4.158h-2.9v2.224h2.9v9.315c0,1.289.032,4.964,4.287,4.964a7.344,7.344,0,0,0,2.385-.419V-2.093a5.339,5.339,0,0,1-1.966.387c-2,0-2.256-1.225-2.256-2.74v-9.283Zm4.384-4.964a1.824,1.824,0,0,0,1.837-1.87,1.816,1.816,0,0,0-1.837-1.837,1.824,1.824,0,0,0-1.87,1.837A1.831,1.831,0,0,0,157.992-18.693ZM156.768.163h2.45V-15.953h-2.45Zm13.86.387c4.674,0,7.8-3.385,7.8-8.445s-3.127-8.445-7.8-8.445c-4.706,0-7.833,3.385-7.833,8.445S165.922.55,170.628.55Zm0-2.256c-3.127,0-5.222-2.482-5.222-6.189s2.1-6.189,5.222-6.189c3.094,0,5.19,2.482,5.19,6.189S173.722-1.706,170.628-1.706Zm19.5-14.634a6.455,6.455,0,0,0-5.834,3.546v-3.159h-2.45V.163h2.45V-7.6c0-3.836,2.063-6.382,5.093-6.382,3.417,0,3.417,3.223,3.417,5.48V.163h2.45v-8.8C195.254-11.312,195.254-16.34,190.129-16.34Z" transform="translate(-23646.813 -22101.57)" fill="#1f1f1f"/>
  </g>
</svg>
